<?xml version="1.0"?>
<svg xmlns="http://www.w3.org/2000/svg" xmlns:xlink="http://www.w3.org/1999/xlink" xmlns:svgjs="http://svgjs.com/svgjs" version="1.1" width="512" height="512" x="0" y="0" viewBox="0 0 473.935 473.935" style="enable-background:new 0 0 512 512" xml:space="preserve" class=""><g>
<circle xmlns="http://www.w3.org/2000/svg" style="" cx="236.967" cy="236.967" r="236.967" fill="#ff0e0e" data-original="#ffc10e" class=""/>
<g xmlns="http://www.w3.org/2000/svg">
	<path style="" d="M357.318,354.8c-66.084-68.291-174.663-68.288-240.743,0.007   c-8.389,8.666,4.827,21.912,13.227,13.227c59.139-61.118,155.146-61.122,214.288-0.007   C352.491,376.708,365.711,363.466,357.318,354.8L357.318,354.8z" fill="#ffffff" data-original="#333333" class=""/>
	<circle style="" cx="164.938" cy="192.665" r="37.216" fill="#ffffff" data-original="#333333" class=""/>
	<circle style="" cx="305.667" cy="192.665" r="37.216" fill="#ffffff" data-original="#333333" class=""/>
	<path style="" d="M316.364,68.389c-28.677,28.673-57.35,57.35-86.024,86.024c4.408,0,8.819,0,13.227,0   c-28.673-28.677-57.347-57.35-86.02-86.024c-8.539-8.539-21.766,4.688-13.227,13.227c28.673,28.677,57.347,57.35,86.02,86.024   c3.603,3.603,9.624,3.603,13.227,0c28.677-28.673,57.35-57.35,86.024-86.024C338.13,73.077,324.899,59.846,316.364,68.389   L316.364,68.389z" fill="#ffffff" data-original="#333333" class=""/>
</g>
<g xmlns="http://www.w3.org/2000/svg">
</g>
<g xmlns="http://www.w3.org/2000/svg">
</g>
<g xmlns="http://www.w3.org/2000/svg">
</g>
<g xmlns="http://www.w3.org/2000/svg">
</g>
<g xmlns="http://www.w3.org/2000/svg">
</g>
<g xmlns="http://www.w3.org/2000/svg">
</g>
<g xmlns="http://www.w3.org/2000/svg">
</g>
<g xmlns="http://www.w3.org/2000/svg">
</g>
<g xmlns="http://www.w3.org/2000/svg">
</g>
<g xmlns="http://www.w3.org/2000/svg">
</g>
<g xmlns="http://www.w3.org/2000/svg">
</g>
<g xmlns="http://www.w3.org/2000/svg">
</g>
<g xmlns="http://www.w3.org/2000/svg">
</g>
<g xmlns="http://www.w3.org/2000/svg">
</g>
<g xmlns="http://www.w3.org/2000/svg">
</g>
</g></svg>
