<?xml version="1.0" encoding="UTF-8" standalone="no"?>
<!-- Generator: Adobe Illustrator 22.1.0, SVG Export Plug-In . SVG Version: 6.00 Build 0)  -->
<svg id="Calque_1" style="enable-background:new 0 0 600 800" xmlns="http://www.w3.org/2000/svg" xml:space="preserve" viewBox="0 0 600 800" version="1.1" y="0px" x="0px" xmlns:xlink="http://www.w3.org/1999/xlink">
		<defs>
			<rect id="SVGID_1_" width="600" height="800"/>
		</defs>
		<clipPath id="SVGID_2_">
			<use xlink:href="#SVGID_1_"/>
		</clipPath>
		<g style="clip-path:url(#SVGID_2_)">
			<rect height="399.5" width="639.3" y="400.5" x="-39.3" fill="#00C86E"/>
					<defs>
						<rect id="SVGID_3_" y="400.5" x="-39.3" height="399.5" width="639.3"/>
					</defs>
					<defs>
						<rect id="SVGID_4_" y="400.5" x="-39.3" height="399.5" width="639.3"/>
					</defs>
					<defs>
						<rect id="SVGID_5_" y="400.5" x="-39.3" height="399.5" width="639.3"/>
					</defs>
					<defs>
						<rect id="SVGID_6_" y="400.5" x="-39.3" height="399.5" width="639.3"/>
					</defs>
					<defs>
						<rect id="SVGID_7_" y="400.5" x="-39.3" height="399.5" width="639.3"/>
					</defs>
					<clipPath id="SVGID_8_">
						<use xlink:href="#SVGID_3_"/>
					</clipPath>
					<clipPath id="SVGID_9_" style="clip-path:url(#SVGID_8_)">
						<use xlink:href="#SVGID_4_"/>
					</clipPath>
					<clipPath id="SVGID_10_" style="clip-path:url(#SVGID_9_)">
						<use xlink:href="#SVGID_5_"/>
					</clipPath>
					<clipPath id="SVGID_11_" style="clip-path:url(#SVGID_10_)">
						<use xlink:href="#SVGID_6_"/>
					</clipPath>
					<clipPath id="SVGID_12_" style="clip-path:url(#SVGID_11_)">
						<use xlink:href="#SVGID_7_"/>
					</clipPath>
					<g opacity=".3" style="clip-path:url(#SVGID_12_)">
							<rect opacity=".1" style="enable-background:new" transform="matrix(.6178 -.7863 .7863 .6178 -397.14 435.19)" height="2.4" width="571.7" y="624.9" x="-36.7"/>
							<rect opacity=".1" style="enable-background:new" transform="matrix(.6413 -.7673 .7673 .6413 -415.62 363.46)" height="2.4" width="585.8" y="625" x="-112"/>
							<rect opacity=".1" style="enable-background:new" transform="matrix(.5924 -.8056 .8056 .5924 -375.24 510.78)" height="2.4" width="558" y="625" x="38.2"/>
							<rect opacity=".1" style="enable-background:new" transform="matrix(.5365 -.8439 .8439 .5365 -318.95 671.7)" height="2.4" width="532.6" y="625" x="185.7"/>
							<rect opacity=".1" style="enable-background:new" transform="matrix(.5051 -.8631 .8631 .5051 -283.36 758.25)" height="2.4" width="520.9" y="625" x="259"/>
							<rect opacity=".1" style="enable-background:new" transform="matrix(.472 -.8816 .8816 .472 -242.17 847.96)" height="2.4" width="509.9" y="625" x="331.9"/>
							<rect opacity=".1" style="enable-background:new" transform="matrix(.4368 -.8996 .8996 .4368 -194.86 941.25)" height="2.4" width="499.6" y="625" x="404.4"/>
							<rect opacity=".1" style="enable-background:new" transform="matrix(.5656 -.8247 .8247 .5656 -348.97 589.85)" height="2.4" width="545" y="625" x="112.9"/>
							<rect opacity=".1" style="enable-background:new" transform="matrix(.6634 -.7483 .7483 .6634 -430.6 295.23)" height="2.4" width="600.5" y="625" x="-187.4"/>
							<rect opacity=".1" style="enable-background:new" transform="matrix(.6835 -.73 .73 .6835 -443.02 230.83)" height="2.4" width="615.7" y="625.1" x="-263.2"/>
							<rect opacity=".1" style="enable-background:new" transform="matrix(.702 -.7121 .7121 .702 -452.92 169.86)" height="2.4" width="631.3" y="625" x="-339.1"/>
							<rect opacity=".1" style="enable-background:new" transform="matrix(.702 -.7121 .7121 .702 -472.46 123.14)" height="2.4" width="631.3" y="625" x="-404.7"/>
							<rect opacity=".1" style="enable-background:new" transform="matrix(.702 -.7121 .7121 .702 -492.67 74.866)" height="2.4" width="631.3" y="625" x="-472.5"/>
							<rect opacity=".1" style="enable-background:new" transform="matrix(.702 -.7121 .7121 .702 -514.13 23.498)" height="2.4" width="631.3" y="624.9" x="-544.6"/>
					</g>
					<path opacity=".1" style="enable-background:new;clip-path:url(#SVGID_12_)" d="m203.2 740.6c-15.2 3.4-5.7-3-5.7-3 0.7-0.2 1.4-0.4 2.3-0.6 4.6-2.9 15.6-7.6 26.1-11.4 1.3-1.3 1.1-2.3-1.5-2.6-10.6-1.5 8.5-10 17.8-15.5 4.9-2.9 4.7-4.6 3.4-5.6-0.8-0.6 6.9-3.8 10.2-4.3 8.4-1.1 8.4 1.6 7.7 3.6-0.4 0.5-0.7 0.9-1 1.3 54-25 79.6-45.3 137.9-68.6-4.3 5.9 21.4-0.1 32 0.8l38.8-16.6h-1.8l2.5-1.1 1.1-0.5 4.1-1.8c6.2-2.7 4.9-3.1 3.5-3.4-1.9-0.5 0.6-1.7 4.4-3.4l3.4-1.4h15.5l-3.4 1.4-19.4 8.4-1.4 0.6-2.5 1.1h-1.6c-11.2 5.6-28.3 14-38.8 18.4 0.2 0.6 0 1.4-0.6 2.4l-168.2 74.2c-1.6 1.3-4 2.9-7.7 4.9-21.4 11.6-44.9 20-57.1 22.7z"/>
					<polygon opacity=".1" style="enable-background:new;clip-path:url(#SVGID_12_)" points="381.5 607 154.7 708.6 148.2 636.6 280.6 607"/>
					<polygon opacity=".1" style="enable-background:new;clip-path:url(#SVGID_12_)" points="490.2 429.2 420.6 468.3 512.9 429.2"/>
					<polygon opacity=".1" style="enable-background:new;clip-path:url(#SVGID_12_)" points="241.5 771.7 116.4 813.5 157.9 840.9 280.9 773"/>
					<path d="m174 379.7s-4 23.9-3.7 29.3h6.2c0-0.1-2.8-20.3-2.5-29.3z" fill="#724A44"/>
					<path d="m231.6 379.7s-4 23.9-3.7 29.3h6.2c0-0.1-2.8-20.3-2.5-29.3z" fill="#724A44"/>
					<path d="m283.4 379.7s-4 23.9-3.7 29.3h6.2c0-0.1-2.8-20.3-2.5-29.3z" fill="#724A44"/>
					<path d="m346.8 379.7s-4 23.9-3.7 29.3h6.2c0-0.1-2.8-20.3-2.5-29.3z" fill="#724A44"/>
					<path d="m410.2 379.7s4 23.9 3.7 29.3h-6.2c0-0.1 2.8-20.3 2.5-29.3z" fill="#724A44"/>
					<path d="m526.1 379.7s4 23.9 3.7 29.3h-6.2c0.1-0.1 2.9-20.3 2.5-29.3z" fill="#724A44"/>
					<path d="m474.3 379.7s4 23.9 3.7 29.3h-6.2c0.1-0.1 2.9-20.3 2.5-29.3z" fill="#724A44"/>
					<path d="m180.7 341.3c-14.4-0.3-6.3 16.6-15.6 19.9s-12.1 12.4-8.1 18.9c6.6 8.8 15.6 1 21.7 4.3 11.3 3.3 16.9-4 18.2-7.3s2.3-11.6-6.3-11.1-7.6-6.6-5.5-10.6c1.9-4 3.4-13.8-4.4-14.1z" fill="#00B45F"/>
					<path opacity=".1" style="enable-background:new" d="m178.7 384.5c7.1 2 11.9 0 14.8-2.7-8.4 4.2-13.9 0-18.9-1.6-5.1-1.6-11.8-3.3-10-9.7 1.5-5.3 10.1-8.9 8.8-17.5-1.4-8.5 7.4-11.7 7.4-11.7-14.4-0.3-6.3 16.6-15.6 19.9s-12.1 12.4-8.1 18.9c6.5 8.9 15.6 1.1 21.6 4.4z"/>
					<path d="m227.9 339.8c-6.6-0.1-14.2 5.8-10.8 21.9 2.8 8.8-12.4 11.6-5.4 23.5 9.3 10.8 13.7-2.8 23.2 1.2s18.6-1.2 17.1-11.9c-0.4-5.1-5.4-9.6-8.1-13.9-6.3-9.9-5.3-20.8-16-20.8z" fill="#00B45F"/>
					<path opacity=".1" style="enable-background:new" d="m244.8 387.3c-2.9 0.9-6.4 0.7-10-0.8-9.5-4-13.9 9.6-23.2-1.2-7-11.9 8.2-14.7 5.4-23.5-3.4-16.1 4.2-22 10.8-21.9 0 0-8.5 5.1-4 12.7 5.4 9.2 4.5 16.8 0.4 23.3-4.7 7.6 7.1 5.3 13.4 7.8 3.9 1.4 7.2 3.6 7.2 3.6z"/>
					<path d="m285.6 344.1c-1.5 13.9-22.2 19.7-17.1 33.5 5 13.9 18.4 10.6 23.2 5.3s7.3-5.8 13.1-5.3 12.2-4.3 9.7-10.8c-4.9-10.1-13.2 2-17.9-2s2.4-11.9 5.7-15.4c8-12.3-13.6-18.9-16.7-5.3z" fill="#00B45F"/>
					<path opacity=".1" style="enable-background:new" d="m291.7 382.9c-4.8 5.3-18.2 8.6-23.2-5.3s15.6-19.7 17.1-33.5c1.5-6.8 7.7-8.6 12.5-7.1 0 0-6.7 1.2-8.2 7.2-1.1 4.5-0.2 11.5-8.9 20.5-6.8 7-7.1 16 6.8 16.2 4.4 0 3.9 2 3.9 2z"/>
					<path d="m336.5 356.8c0 6.6-18.6 15.3-6.8 27.6 7.1 7.4 16.8-3.4 32.3-2.9s12.4-19.3 2-21-5-16.5-19.8-15c-7.7 0-7.7 11.3-7.7 11.3z" fill="#00B45F"/>
						<path opacity=".1" style="enable-background:new" d="m335.9 379.7c-6.9-5.8 4.9-16.7 3.6-22.9 0 0-1.6-7.6 2.3-10.8-5.3 2-5.3 10.8-5.3 10.8 0 6.6-18.6 15.3-6.8 27.6 7.1 7.4 16.8-3.4 32.3-2.9 2.1 0.1 3.9-0.3 5.3-0.9-18.5-5.9-24.2 5.2-31.4-0.9z"/>
					<path d="m403.4 341.3c14.4-0.3 6.3 16.6 15.6 19.9s12.1 12.4 8.1 18.9c-6.6 8.8-15.6 1-21.7 4.3-11.3 3.3-16.9-4-18.2-7.3s-2.3-11.6 6.3-11.1 7.6-6.6 5.5-10.6c-1.9-4-3.4-13.8 4.4-14.1z" fill="#00B45F"/>
						<path opacity=".1" style="enable-background:new" d="m394.5 376.8c-0.6-1.4-1-7.5 5-9 8.3-2.1 6.1-7.9 3.4-11.5-2.8-3.6-6.2-12.9 1.5-14.7 0.4-0.1 0.8-0.2 1.2-0.2-0.7-0.1-1.4-0.1-2.2-0.1-7.8 0.3-6.3 10.1-4.3 14.1s3 11.1-5.5 10.6c-8.6-0.5-7.6 7.8-6.3 11.1s6.8 10.6 18.2 7.3c2.1-1.1 4.5-0.9 7-0.6-6.8-3.3-15.2-0.4-18-7z"/>
					<path d="m529.9 339.8c6.6-0.1 14.2 5.8 10.8 21.9-2.8 8.8 12.4 11.6 5.4 23.5-9.3 10.8-13.7-2.8-23.2 1.2s-18.6-1.2-17.1-11.9c0.4-5.1 5.4-9.6 8.1-13.9 6.2-9.9 5.2-20.8 16-20.8z" fill="#00B45F"/>
					<g opacity=".3">
						<path opacity=".1" style="enable-background:new" d="m530 384.6c-0.9 0.5-1.8 0.9-2.7 1.2 6.5 0.6 10.7 8 18 0.3-4.7-0.1-9.3-4.8-15.3-1.5z"/>
						<path opacity=".1" style="enable-background:new" d="m511.8 374.4c-0.1-5.1 4.4-10.1 6.7-14.6 3.8-7.6 3.8-15.3 7.4-19.4-6.6 2.4-6.7 11.7-12.1 20.3-2.7 4.3-7.7 8.8-8.1 13.9-1.4 10.6 7.4 15.8 16.9 12-6.2 0-11.1-4.4-10.8-12.2z"/>
					</g>
					<path d="m472.1 344.1c1.5 13.9 22.2 19.7 17.1 33.5-5 13.9-18.4 10.6-23.2 5.3s-7.3-5.8-13.1-5.3-12.2-4.3-9.7-10.8c4.9-10.1 13.2 2 17.9-2 4.3-3.7-1.3-10.6-4.8-14.4-0.8-0.9-1.5-1.8-1.9-2.9-4.7-11.1 14.9-16.3 17.7-3.4z" fill="#00B45F"/>
						<path opacity=".1" style="enable-background:new" d="m464.3 364.1c4.4-4.1-2.6-11.1-6.7-14.8-1.1-1-2.1-2.2-2.7-3.5-0.6-1.4-0.9-2.6-0.9-3.8-0.6 1.6-0.5 3.5 0.4 5.5 0.5 1.1 1.1 2 1.9 2.9 3.5 3.8 9.1 10.7 4.8 14.4-1.2 1-2.7 1-4.2 0.5 2.2 1.1 4.6 1.4 7.4-1.2z"/>
						<path opacity=".1" style="enable-background:new" d="m455.7 374.8c-6.1 1.2-8.9-2.9-8.2-6.6 0.5-3 1.2-4.7 1.9-5.5-2.2-0.2-4.3 0.6-6 4.1-2.6 6.6 3.9 11.3 9.7 10.8s8.3 0 13.1 5.3c2.8 3 8.4 5.4 13.6 4.2-4.2-0.1-8.1-1.5-10.4-3.5-5.8-5-7.6-10-13.7-8.8z"/>
					<polygon points="430.5 371.9 428.7 371.9 427 371.9 415.6 498.4 428.7 498.4 441.9 498.4" fill="#E8E8E8"/>
					<path d="m404.7 500.6h48.1c0.9 0 1.7 0.7 1.7 1.7v2h-51.5v-2c0-0.9 0.8-1.7 1.7-1.7z" fill="#E8E8E8"/>
					<path d="m411.2 498.4h35.1c0.6 0 1.1 0.5 1.1 1.1v1.3h-37.3v-1.3c0-0.6 0.5-1.1 1.1-1.1z" fill="#E8E8E8"/>
					<path d="m428.2 300.6c-0.1-0.2-0.4-0.3-0.7-0.3-0.3 0.1-0.4 0.3-0.4 0.6v60.8c0 0.3 0.2 0.5 0.5 0.6h0.1c0.2 0 0.4-0.1 0.5-0.3 5.1-10.3 7.8-20.6 8.1-30.6 0.3-11-2.4-21.3-8.1-30.8z" fill="#E8E8E8"/>
					<path opacity=".1" style="enable-background:new" d="m433.9 313.4c-1.3-4.4-3.2-8.7-5.7-12.8-0.1-0.2-0.4-0.3-0.7-0.3-0.3 0.1-0.4 0.3-0.4 0.6v60.8c0 0.3 0.2 0.5 0.5 0.6h0.1c0.2 0 0.4-0.1 0.5-0.3 0.2-0.4 0.3-0.7 0.5-1.1 0.1-12.5 1.6-41 5.2-47.5z"/>
					<path d="m425.1 370.7c-0.1-0.3-0.3-0.4-0.6-0.4-11.5 0.8-21.7 3.5-30.5 8.3-9.7 5.2-17.3 12.8-22.6 22.4-0.1 0.2-0.1 0.5 0.1 0.7 0.1 0.1 0.3 0.2 0.4 0.2s0.2 0 0.3-0.1l52.7-30.4c0.2-0.2 0.3-0.5 0.2-0.7z" fill="#E8E8E8"/>
					<path opacity=".1" style="enable-background:new" d="m425.1 370.7c-0.1-0.3-0.3-0.4-0.6-0.4-1.7 0.1-3.3 0.3-5 0.5h-0.2c-0.3 0-0.7 0.1-1 0.1s-0.6 0.1-0.9 0.1h-0.2c-8.6 1.3-16.4 3.8-23.3 7.5-8.9 4.8-16.1 11.6-21.4 20.2 14.9-16.1 41.5-27.2 46.6-26.3 1.7 0.3 1.5 0.8 2 0.9l3.5-2c0.5-0.1 0.6-0.4 0.5-0.6z"/>
					<path d="m487 398.9l-52.7-30.4c-0.2-0.1-0.6-0.1-0.7 0.1-0.2 0.2-0.2 0.5-0.1 0.8 6.4 9.6 13.9 17.1 22.4 22.3 9.1 5.6 19.1 8.4 29.8 8.4h1c0.3 0 0.5-0.2 0.6-0.5 0-0.3-0.1-0.6-0.3-0.7z" fill="#E8E8E8"/>
					<path opacity=".1" style="enable-background:new" d="m428.7 500.6v-2.2h-2.1c0.1-5.2 1.5-113.9 1.6-117.9 0.1-4.2 2.6-4.7 2.6-4.7l-0.3-3.8h-3.5l-11.4 126.4h-4.5c-0.6 0-1.1 0.5-1.1 1.1v1.2h-5.6c-0.8 0-1.5 0.7-1.5 1.5v2.1h27.8v-3l0.3-0.7h-2.3z"/>
						<circle cx="428.7" r="6.2" cy="367.2" fill="#E8E8E8"/>
						<circle opacity=".1" style="enable-background:new" cx="428.2" r="4" cy="367.5"/>
						<circle cx="428.7" r="3.7" cy="367.2" fill="#E8E8E8"/>
					<polygon points="502.3 370.8 501.6 370.8 500.8 370.8 495.8 426.6 501.6 426.6 507.4 426.6" fill="#E8E8E8"/>
					<path d="m491 427.6h21.3c0.4 0 0.7 0.3 0.7 0.7v0.9h-22.7v-0.9c-0.1-0.4 0.2-0.7 0.7-0.7z" fill="#E8E8E8"/>
					<path d="m493.8 426.6h15.5c0.3 0 0.5 0.2 0.5 0.5v0.6h-16.5v-0.6c0-0.3 0.3-0.5 0.5-0.5z" fill="#E8E8E8"/>
					<path d="m501.3 339.3c-0.1-0.1-0.2-0.2-0.3-0.1-0.1 0-0.2 0.1-0.2 0.3v26.8c0 0.1 0.1 0.2 0.2 0.3h0.1s0.2-0.1 0.2-0.1c2.2-4.6 3.4-9.1 3.6-13.5 0.1-5-1.1-9.5-3.6-13.7z" fill="#E8E8E8"/>
					<path opacity=".1" style="enable-background:new" d="m503.9 344.9c-0.6-2-1.4-3.8-2.5-5.6-0.1-0.1-0.2-0.2-0.3-0.1-0.1 0-0.2 0.1-0.2 0.3v26.8c0 0.1 0.1 0.2 0.2 0.3h0.1s0.2-0.1 0.2-0.1c0.1-0.2 0.2-0.3 0.2-0.5 0-5.6 0.6-18.2 2.3-21.1z"/>
					<path d="m500 370.2c0-0.1-0.1-0.2-0.3-0.2-5.1 0.3-9.6 1.6-13.5 3.7-4.3 2.3-7.6 5.6-10 9.9-0.1 0.1 0 0.2 0 0.3 0.1 0.1 0.1 0.1 0.2 0.1h0.1l23.2-13.4c0.3-0.1 0.3-0.3 0.3-0.4z" fill="#E8E8E8"/>
					<path opacity=".1" style="enable-background:new" d="m500 370.2c0-0.1-0.1-0.2-0.3-0.2-0.7 0-1.5 0.1-2.2 0.2h-0.1s-0.3 0-0.4 0.1c-0.1 0-0.3 0-0.4 0.1h-0.1c-3.8 0.6-7.3 1.7-10.3 3.3-3.9 2.1-7.1 5.1-9.4 8.9 6.6-7.1 18.3-12 20.6-11.6 0.7 0.1 0.7 0.3 0.9 0.4l1.6-0.9c0.1 0 0.1-0.2 0.1-0.3z"/>
					<path d="m527.3 382.7l-23.3-13.4c-0.1-0.1-0.2 0-0.3 0-0.1 0.1-0.1 0.2 0 0.3 2.8 4.2 6.2 7.5 9.9 9.8 4 2.5 8.4 3.7 13.1 3.7h0.4c0.1 0 0.2-0.1 0.3-0.2 0 0 0-0.2-0.1-0.2z" fill="#E8E8E8"/>
					<path opacity=".1" style="enable-background:new" d="m501.6 427.6v-1h-0.9c0-2.3 0.7-50.3 0.7-52.1 0.1-1.8 1.1-2.1 1.1-2.1l-0.2-1.7h-1.6l-5 55.8h-2c-0.3 0-0.5 0.2-0.5 0.5v0.5h-2.5c-0.4 0-0.6 0.3-0.6 0.6v0.9h12.3v-1.3l0.1-0.3h-0.9v0.2z"/>
						<circle cx="501.6" r="2.7" cy="368.7" fill="#E8E8E8"/>
						<circle opacity=".1" style="enable-background:new" cx="501.3" r="1.8" cy="368.8"/>
						<circle cx="501.6" r="1.7" cy="368.7" fill="#E8E8E8"/>
				<path d="m177 665.1c18 12.9 31.5 25.2 65.2 29.6 17.1 3.6 21.4-11.9 21.4-11.9l-9.3-40.1-50.8-25.9-26.5 48.3z" fill="#002057"/>
				<path d="m239.5 666.8c-3.4 15.9 5.1 72.8 5.1 72.8h11.5l4.2-62.3v-34.7l-20.8 12.3s3.4-4 0 11.9z" fill="#FFEBE0"/>
				<g opacity=".3">
					<path opacity=".1" style="enable-background:new" d="m239.5 654.9l0.8-0.4c-0.4 0-0.8 0.4-0.8 0.4z"/>
					<path opacity=".1" style="enable-background:new" d="m260.4 647.4l-2.4-3.4-17.8 10.5c0.8 0 1.5 1.7-0.8 12.3-3.4 15.9 5.1 72.8 5.1 72.8h5c0-0.6 0-1.3-0.1-2-2.6-39 2.6-52.7 10.5-54.9l0.4-5.4v-29.9h0.1z"/>
				</g>
					<path d="m272.5 761.8c-5.1-0.8-11.6-1.7-11.6-7.9v-7.7-11.1h-19.4v34.5h39.4c-0.6-3.9-1.5-6.7-8.4-7.8z" fill="#f00"/>
					<rect height="2.9" width="19.4" y="739.3" x="241.5" fill="#fff"/>
					<rect height="3.3" width="39.4" y="769.7" x="241.5" fill="#fff"/>
				<path d="m246.9 466.2l39-57.2c5.5 0.3 10 2.9 12 3.2 1.5 0.2 3.4 0.1 4.9-0.6 0.6-0.3 1.4 0.2 1.4 0.9v1.6c0 0.9 0.5 1.7 1.2 2.2l1.2 0.7c0.3 0.2 0.5 0.6 0.3 1l-0.9 1.9c-0.1 0.3 0.1 0.6 0.4 0.5l2.6-0.7c0.3-0.1 0.6 0.1 0.6 0.4 0 0.7 0.3 1.8 1.6 2.7 2 1.4 5.1 2.3 2.3 7.4-2.9 5.1-16 14.8-16.8 31.6" fill="#FFEBE0"/>
				<path opacity=".1" style="enable-background:new" d="m288.5 481.6c-0.8-4.3 7.7-8 8.2-19.9 0.8-16.8 13.9-26.4 16.8-31.6 0.3-0.5 0.5-1 0.7-1.5-7.4 0.2-7.5 3.5-16.2 7.5-9 4.1-12.8-2.6-13.1-6.6l-12.6-0.5-25.3 37.2-7.6 13.9 49.1 1.5z"/>
				<path d="m263.7 682.7c-10.3-19.9-26.2-17.5-58-12.7s-46.9-21.8-48.4-26.2l83-166.6 4.1-6.1 41.6-22.7c2.4 3.6 5.4 8.4 12.4 10.4 0 0-27 216.4-34.7 223.9z" fill="#002F7D"/>
				<path d="m257.1 550.4c-11.1 10.6-14.1 29.3-14.1 29.3l29-29.2-14.9-0.1z" fill="#002057"/>
				<path d="m240.3 477.1l-36.7 73.7c43.1 0.8 41.8-52 55.7-64.1l9.3-5.9-5.1-12.4-19.1 2.7-4.1 6z" fill="#002057"/>
				<path d="m273.5 462.4c7.6-0.6 13.4 4.7 10.6 21.7s-12 66.4-12 66.4l-14.5 14.6s-1.1-22.3 1.7-30.9 3.5-9.4 2.5-23.3-4-47.3 11.7-48.5z" fill="#19B4FA"/>
				<path d="m281.6 407c-6.8-1-16 1.3-21.5 18-5.5 16.8-17 18.5-25 19.5s-19.5 3.3-25.5 20.5c-6 17.3-8 17-14.5 20.3s-13.5 11.8-6 22c7.5 10.3 17-5.5 27-4.8s24.5 9.5 32.6-8.5 9.3-26 25.8-31.1c11-3 13-13.5 18.5-18.5 0.3-2.8-1.3-3.8-4.5-3.8-3.3 0-8.3-4.3-3.5-11.3s5.9-21.3-3.4-22.3z" fill="#724A44"/>
				<g opacity=".6">
					<path opacity=".1" style="enable-background:new" d="m285.1 408.3l0.1 0.1c0-0.1 0-0.1-0.1-0.1z"/>
					<path opacity=".1" style="enable-background:new" d="m286.6 409.8c0.1 0.1 0.1 0.1 0.1 0.2 0 0 0-0.1-0.1-0.2z"/>
					<path opacity=".1" style="enable-background:new" d="m226.4 446.4c-5 1.8-10.2 5.2-14.2 12.4 4-7.2 9.2-10.7 14.2-12.4z"/>
					<path opacity=".1" style="enable-background:new" d="m287 410.4c0 0.1 0.1 0.1 0.1 0.2 0-0.1 0-0.1-0.1-0.2z"/>
					<path opacity=".1" style="enable-background:new" d="m284.5 407.8c0.1 0 0.1 0.1 0.2 0.1-0.1 0-0.1 0-0.2-0.1z"/>
					<path opacity=".1" style="enable-background:new" d="m283.1 407.3c0.1 0 0.2 0.1 0.3 0.1-0.1-0.1-0.2-0.1-0.3-0.1z"/>
					<path opacity=".1" style="enable-background:new" d="m282.4 407.1c0.1 0 0.2 0 0.2 0.1 0-0.1-0.1-0.1-0.2-0.1z"/>
					<path opacity=".1" style="enable-background:new" d="m283.8 407.5c0.1 0 0.2 0.1 0.2 0.1s-0.1 0-0.2-0.1z"/>
					<path opacity=".1" style="enable-background:new" d="m287.4 411.1c0 0.1 0.1 0.1 0.1 0.2-0.1-0.1-0.1-0.2-0.1-0.2z"/>
					<path opacity=".1" style="enable-background:new" d="m286.2 409.3l0.2 0.2c-0.1-0.1-0.1-0.2-0.2-0.2z"/>
					<path opacity=".1" style="enable-background:new" d="m288.4 414.9v0.3c0.1-0.1 0-0.2 0-0.3z"/>
					<path opacity=".1" style="enable-background:new" d="m288.5 415.9v0.1-0.1z"/>
					<path opacity=".1" style="enable-background:new" d="m287.7 411.9v0.1c0.1 0 0.1-0.1 0-0.1z"/>
					<path opacity=".1" style="enable-background:new" d="m288.5 417.1v-0.3 0.3z"/>
					<path opacity=".1" style="enable-background:new" d="m285.9 408.9l-0.1-0.1s0 0.1 0.1 0.1z"/>
					<path opacity=".1" style="enable-background:new" d="m288 412.6c0 0.1 0 0.2 0.1 0.2-0.1 0-0.1-0.1-0.1-0.2z"/>
					<path opacity=".1" style="enable-background:new" d="m288.3 414.1v0.3-0.3z"/>
					<path opacity=".1" style="enable-background:new" d="m288.2 413.3c0 0.1 0 0.2 0.1 0.3-0.1-0.1-0.1-0.2-0.1-0.3z"/>
					<path opacity=".1" style="enable-background:new" d="m288.5 417.9v-0.3 0.3z"/>
					<path opacity=".1" style="enable-background:new" d="m288.1 421.5v-0.2 0.2z"/>
					<path opacity=".1" style="enable-background:new" d="m288.4 419.6v-0.3 0.3z"/>
					<path opacity=".1" style="enable-background:new" d="m288.3 420.5v-0.2s0 0.1 0 0.2z"/>
					<path opacity=".1" style="enable-background:new" d="m288.5 418.8v-0.3 0.3z"/>
					<path opacity=".1" style="enable-background:new" d="m288.4 440.8c-3.3 0-8.3-4.3-3.5-11.3 0.7-1.1 1.4-2.4 1.9-3.8-6.8 4-14.3 27.3-38 34.8s-27.7 16.8-36.6-1.7c-1 1.8-1.9 3.9-2.7 6.2-6 17.3-8 17-14.5 20.3s-13.5 11.8-6 22c7.5 10.3 17-5.5 27-4.8 10 0.8 24.5 9.5 32.6-8.5 8-18 9.3-26 25.8-31.1 11-3 13-13.5 18.5-18.5 0.3-2.6-1.2-3.6-4.5-3.6z"/>
					<path opacity=".1" style="enable-background:new" d="m234.1 444.6h0.3-0.3z"/>
					<path opacity=".1" style="enable-background:new" d="m287.1 425c0-0.1 0.1-0.2 0.1-0.3 0 0.1 0 0.2-0.1 0.3z"/>
					<path opacity=".1" style="enable-background:new" d="m287.6 423.3c0-0.1 0.1-0.2 0.1-0.3 0 0.1 0 0.2-0.1 0.3z"/>
					<path opacity=".1" style="enable-background:new" d="m287.9 422.5c0-0.1 0-0.2 0.1-0.3-0.1 0.1-0.1 0.2-0.1 0.3z"/>
					<path opacity=".1" style="enable-background:new" d="m287.4 424.2c0-0.1 0.1-0.2 0.1-0.3 0 0-0.1 0.2-0.1 0.3z"/>
					<path opacity=".1" style="enable-background:new" d="m231.7 445c0.1 0 0.3 0 0.4-0.1-0.1 0.1-0.2 0.1-0.4 0.1z"/>
					<path opacity=".1" style="enable-background:new" d="m232.5 444.9c0.1 0 0.3 0 0.4-0.1-0.1 0-0.3 0.1-0.4 0.1z"/>
					<path opacity=".1" style="enable-background:new" d="m226.5 446.3c0.2-0.1 0.4-0.1 0.7-0.2-0.3 0.1-0.5 0.2-0.7 0.2z"/>
					<path opacity=".1" style="enable-background:new" d="m233.3 444.8h0.3c-0.1-0.1-0.2-0.1-0.3 0z"/>
					<path opacity=".1" style="enable-background:new" d="m231 445.2c0.2 0 0.3-0.1 0.5-0.1-0.2 0-0.4 0-0.5 0.1z"/>
					<path opacity=".1" style="enable-background:new" d="m227.3 446.1c0.2-0.1 0.4-0.1 0.6-0.2-0.2 0.1-0.4 0.1-0.6 0.2z"/>
					<path opacity=".1" style="enable-background:new" d="m228.1 445.9c0.2-0.1 0.4-0.1 0.6-0.2-0.2 0-0.4 0.1-0.6 0.2z"/>
					<path opacity=".1" style="enable-background:new" d="m228.8 445.7c0.7-0.2 1.3-0.3 1.9-0.4-0.6 0-1.3 0.2-1.9 0.4z"/>
				</g>
				<path opacity=".1" style="enable-background:new" d="m258.2 764.5c-11.3-2.2-12.7-22.8-13.5-29.4h-3.2v34.5h37.1c-4.5-5-10.1-3.1-20.4-5.1z"/>
				<polygon opacity=".1" style="enable-background:new" points="452.6 504.3 346.8 549.4 345.7 537.8 403 504.3"/>
					<polygon points="333.3 347.2 329.9 347.2 326.5 347.2 304.1 595.4 329.9 595.4 355.6 595.4" fill="#fff"/>
					<path d="m282.6 599.8h94.5c1.8 0 3.2 1.5 3.2 3.2v3.9h-101v-3.9c0.1-1.7 1.5-3.2 3.3-3.2z" fill="#fff"/>
					<path d="m295.4 595.4h69c1.2 0 2.1 0.9 2.1 2.1v2.5h-73.2v-2.5c0-1.1 0.9-2.1 2.1-2.1z" fill="#fff"/>
					<path d="m328.8 207.2c-0.3-0.5-0.8-0.7-1.3-0.5-0.5 0.1-0.9 0.6-0.9 1.1v119.3c0 0.6 0.4 1 0.9 1.2h0.3c0.4 0 0.9-0.3 1.1-0.7 10-20.2 15.3-40.4 15.8-60 0.6-21.5-4.8-41.9-15.9-60.4z" fill="#fff"/>
					<path opacity=".1" style="enable-background:new" d="m340 232.3c-2.6-8.7-6.4-17.1-11.2-25.1-0.3-0.5-0.8-0.7-1.3-0.5-0.5 0.1-0.9 0.6-0.9 1.1v119.3c0 0.6 0.4 1 0.9 1.2h0.3c0.4 0 0.9-0.3 1.1-0.7 0.4-0.7 0.7-1.4 1-2.1 0-24.5 2.9-80.5 10.1-93.2z"/>
					<path d="m322.7 344.7c-0.2-0.5-0.7-0.9-1.2-0.8-22.5 1.5-42.7 6.9-59.9 16.3-19 10.3-33.9 25.1-44.5 44-0.3 0.5-0.2 1.1 0.2 1.4 0.2 0.2 0.5 0.3 0.8 0.3 0.2 0 0.4-0.1 0.6-0.2l103.4-59.7c0.6-0.2 0.8-0.7 0.6-1.3z" fill="#fff"/>
					<path opacity=".1" style="enable-background:new" d="m322.7 344.7c-0.2-0.5-0.7-0.9-1.2-0.8-3.3 0.2-6.6 0.5-9.8 0.9h-0.3c-0.6 0.1-1.3 0.2-1.9 0.3s-1.1 0.2-1.7 0.2c-0.1 0-0.2 0-0.4 0.1-16.9 2.5-32.3 7.4-45.8 14.8-17.5 9.5-31.6 22.8-41.9 39.7 29.2-31.6 81.4-53.4 91.6-51.6 3.3 0.5 2.9 1.5 4 1.8l6.9-4c0.5-0.3 0.7-0.8 0.5-1.4z"/>
					<path d="m444.2 400.1l-103.4-59.7c-0.5-0.3-1.1-0.2-1.5 0.2s-0.4 1-0.1 1.5c12.5 18.8 27.3 33.5 44 43.7 17.9 11 37.5 16.5 58.5 16.5h1.9c0.5 0 1-0.4 1.1-0.9 0.2-0.5 0-1-0.5-1.3z" fill="#fff"/>
					<path opacity=".1" style="enable-background:new" d="m329.9 599.8v-4.4h-4.2c0.1-10.2 2.9-223.5 3.2-231.5 0.3-8.2 5.1-9.2 5.1-9.2l-0.7-7.5h-6.8l-22.3 248.2h-8.8c-1.1 0-2.1 0.9-2.1 2.1v2.3h-11c-1.6 0-2.9 1.3-2.9 2.9v4.2h54.5v-5.8l0.5-1.3h-4.5z"/>
						<circle cx="329.9" r="12.2" cy="337.9" fill="#fff"/>
						<circle opacity=".1" style="enable-background:new" cx="328.9" r="7.9" cy="338.5"/>
						<circle cx="329.9" r="7.3" cy="337.9" fill="#fff"/>
					<polygon points="103.5 111.4 94.6 111.4 85.6 111.4 26.3 769.6 94.6 769.6 162.8 769.6" fill="#fff"/>
					<path d="m-30.7 781.2h250.5c4.8 0 8.6 3.9 8.6 8.6v10.2h-267.7v-10.2c0-4.8 3.8-8.6 8.6-8.6z" fill="#fff"/>
					<path d="m3.1 769.6h183c3.1 0 5.6 2.5 5.6 5.6v6.6h-194.2v-6.6c0-3.1 2.5-5.6 5.6-5.6z" fill="#fff"/>
					<path d="m91.7-260c-0.7-1.2-2.2-1.8-3.6-1.4s-2.3 1.6-2.3 3v316.5c0 1.5 1 2.7 2.4 3.1 0.2 0.1 0.5 0.1 0.7 0.1 1.2 0 2.3-0.7 2.8-1.8 26.5-53.7 40.6-107.2 42-159.1 1.7-57.2-12.5-111.2-42-160.4z" fill="#fff"/>
					<path opacity=".1" style="enable-background:new" d="m121.4-193.5c-7-23-16.9-45.2-29.6-66.5-0.7-1.2-2.2-1.8-3.6-1.4s-2.3 1.6-2.3 3v316.5c0 1.5 1 2.7 2.4 3.1 0.2 0.1 0.5 0.1 0.7 0.1 1.2 0 2.3-0.7 2.8-1.8l2.7-5.7c0.1-65 7.9-213.4 26.9-247.3z"/>
					<path d="m75.6 104.8c-0.4-1.4-1.8-2.3-3.2-2.2-59.7 3.9-113.1 18.4-158.7 43.1-50.3 27.3-90 66.6-117.9 116.7-0.7 1.2-0.5 2.8 0.5 3.8 0.6 0.6 1.4 0.9 2.2 0.9 0.5 0 1.1-0.1 1.6-0.4l274.1-158.3c1.3-0.7 1.8-2.2 1.4-3.6z" fill="#fff"/>
					<path opacity=".1" style="enable-background:new" d="m75.6 104.8c-0.4-1.4-1.8-2.3-3.2-2.2-8.8 0.6-17.4 1.4-25.9 2.4-0.3 0-0.5 0.1-0.8 0.1-1.7 0.2-3.4 0.4-5.1 0.7-1.5 0.2-3 0.4-4.5 0.6-0.3 0-0.7 0.1-1 0.1-44.8 6.6-85.6 19.7-121.5 39.2-46.4 25.2-83.7 60.5-111.1 105.2 77.4-83.7 215.8-141.6 242.8-136.7 8.6 1.4 7.7 4 10.6 4.8l18.3-10.6c1.3-0.7 1.8-2.2 1.4-3.6z"/>
					<path d="m397.7 251.6l-274.1-158.2c-1.3-0.7-2.9-0.5-3.9 0.6s-1.1 2.7-0.3 3.9c33.2 49.8 72.5 88.8 116.7 115.9 47.4 29.1 99.5 43.8 155 43.8h5c1.4 0 2.7-1 3-2.4 0.5-1.4-0.1-2.9-1.4-3.6z" fill="#fff"/>
						<circle cx="94.6" r="32.4" cy="86.6" fill="#fff"/>
						<circle opacity=".1" style="enable-background:new" cx="91.9" r="21" cy="88.1"/>
						<circle cx="94.6" r="19.5" cy="86.6" fill="#fff"/>
					<path d="m498.8 578.4l-0.3 23.5 2.3-1.3s7-17.1 6.6-24-5.5-10.3-5.5-10.3l-3.1 12.1z" fill="#FFEBE0"/>
					<path opacity=".1" style="enable-background:new" d="m507.4 576.6s-5.4 3.3-6.4 11.4-0.5 13.4-0.5 13.4l-2.1 0.5 0.3-23.5 7.8-4.6 0.9 2.8z"/>
						<path d="m496.6 598.3c0 2.7-2.3 3.1-4.5 3.4-3 0.5-3.4 1.7-3.6 3.4h15.5l0.5-10.1h-7.7l-0.2 3.3z" fill="#19B4FA"/>
						<polygon points="496.7 597.4 504.4 597.4 504.4 596.1 496.7 596.1" fill="#fff"/>
						<path opacity=".1" style="enable-background:new" d="m496.6 598.3c0 2.7-2.3 3.1-4.5 3.4-3 0.5-3.4 1.7-3.6 3.4h7.7s0.1-2.6 1.9-3.7c1.7-1.1 1.3-6.4 1.3-6.4h-2.7l-0.1 3.3z"/>
						<rect height="1.4" width="15.5" y="605.2" x="488.5" fill="#fff"/>
					<path d="m488.7 510.6c-5 25-27.2 45.3-23.8 68.6 12.9-7.9 29.3 5.7 47.4-4.9l6.8-76.5-31.6 7.4 1.2 5.4z" fill="#f00"/>
					<path opacity=".1" style="enable-background:new" d="m484.5 542.5c7.3-40.6 9.8-29.1 25.2-37.9l-22.2 0.6 1.1 5.4c-5 25-27.2 45.3-23.8 68.6 12.9-7.9 29.3 5.7 47.4-4.9l0.1-0.6c-10.6-2.9-14.5 1.5-27-2-14.3-4-4.2-10.2-0.8-29.2z"/>
					<path d="m507.9 475.3c-2.9 2.9-3.2 8.6-1.2 12.8 2 4.3 10.5 0 10.5 0l-1-9.4-4-4.9-4.3 1.5z" fill="#FFEBE0"/>
						<path d="m498.9 536.3l-8.9-6.3c4-0.7 8.2 2 8.9 6.3z" fill="#002F7D"/>
						<path d="m505.7 502.8c-2.9 7.4-10.9 24.9-13.4 28.8l3.7 2.6s15.6-23.4 18.9-32.4l-9.2 1z" fill="#19B4FA"/>
					<path d="m506.3 475.5c4.2 2.1 6.4 13.2-7.7 14.7s-15 10-18.6 15.5c-1.9 2.9-6.2 4.6-9.8 5.6-2.2 0.6-2.1 3.8 0.2 4.3 5.7 1.1 12.2-1.6 16.3-3.6 12.3-8.6 28.7-3.2 36.2-16.7 5.7-11.6 1.9-19.9-3.9-22.6-7.1-3.6-12.7 2.8-12.7 2.8z" fill="#002F7D"/>
					<path d="m519 472.5c-3.8-1.8-7.1-0.9-9.5 0.4 1.2 1 4.4 1 5.4 6.4 1.5 7.8 8 10.7 2.2 18.4-5.9 7.6-18.6 2.1-25.3 4.1s-8.3 6-12.1 9.5c-2.8 2.6-4.9 0-5.7-1.5-1.3 0.5-2.6 1-3.8 1.3-2.2 0.6-2.1 3.8 0.2 4.3 5.7 1.1 12.2-1.6 16.3-3.6 12.3-8.6 28.7-3.2 36.2-16.7 5.7-11.5 1.9-19.9-3.9-22.6z" fill="#002057"/>
		</g>
</svg>
