<?xml version="1.0"?>
<svg xmlns="http://www.w3.org/2000/svg" xmlns:xlink="http://www.w3.org/1999/xlink" xmlns:svgjs="http://svgjs.com/svgjs" version="1.1" width="512" height="512" x="0" y="0" viewBox="0 0 512.04 512.04" style="enable-background:new 0 0 512 512" xml:space="preserve" class=""><g><g xmlns="http://www.w3.org/2000/svg"><path d="m317.039 0c-107.523 0-195 87.477-195 195 0 48.374 17.712 92.685 46.984 126.803l-20.529 20.529c-16.724-7.967-37.382-5.044-51.209 8.782l-97.285 97.286 63.639 63.64 97.286-97.286c13.828-13.827 16.749-34.485 8.782-51.209l20.529-20.529c34.119 29.271 78.429 46.984 126.803 46.984 107.523 0 195-87.477 195-195s-87.476-195-195-195zm-177.327 393.541-76.073 76.073-21.213-21.214 76.072-76.073c5.85-5.848 15.366-5.848 21.214 0 5.863 5.863 5.863 15.351 0 21.214zm177.327-33.541c-90.981 0-165-74.019-165-165s74.019-165 165-165 165 74.019 165 165-74.018 165-165 165z" fill="#0987e5" data-original="#000000" style="" class=""/><path d="m377.039 120c0-33.084-26.916-60-60-60s-60 26.916-60 60 26.916 60 60 60 60-26.916 60-60zm-60 30c-16.542 0-30-13.458-30-30s13.458-30 30-30 30 13.458 30 30-13.458 30-30 30z" fill="#0987e5" data-original="#000000" style="" class=""/><path d="m317.039 180c-57.897 0-105 47.103-105 105v15h210v-15c0-57.897-47.102-105-105-105zm-73.493 90c6.97-34.191 37.274-60 73.493-60s66.523 25.809 73.493 60z" fill="#0987e5" data-original="#000000" style="" class=""/></g></g></svg>
