<?xml version="1.0" encoding="UTF-8" standalone="no"?>
<!-- Generator: Adobe Illustrator 22.1.0, SVG Export Plug-In . SVG Version: 6.00 Build 0)  -->
<svg id="Calque_1" style="enable-background:new 0 0 600 800" xmlns="http://www.w3.org/2000/svg" xml:space="preserve" viewBox="0 0 600 800" version="1.1" y="0px" x="0px" xmlns:xlink="http://www.w3.org/1999/xlink">
	<defs>
		<rect id="SVGID_1_" width="600" height="800"/>
	</defs>
	<clipPath id="SVGID_2_">
		<use xlink:href="#SVGID_1_"/>
	</clipPath>
	<g style="clip-path:url(#SVGID_2_)">
		<path d="m423.1 329.2c-3.7 0-6.6 3-6.6 6.6 0 3.7 3 6.6 6.6 6.6 3.7 0 6.6-3 6.6-6.6 0.1-3.6-2.9-6.6-6.6-6.6zm0 10c-1.8 0-3.3-1.5-3.3-3.3s1.5-3.3 3.3-3.3 3.3 1.5 3.3 3.3-1.4 3.3-3.3 3.3z" fill="#002F7D"/>
		<path d="m464.4 329.2c-3.7 0-6.6 3-6.6 6.6 0 3.7 3 6.6 6.6 6.6 3.7 0 6.6-3 6.6-6.6s-2.9-6.6-6.6-6.6zm0 10c-1.8 0-3.3-1.5-3.3-3.3s1.5-3.3 3.3-3.3 3.3 1.5 3.3 3.3-1.5 3.3-3.3 3.3z" fill="#002F7D"/>
			<defs>
				<rect id="SVGID_3_" y="281.1" x="-5.9" height="368.8" width="612.4"/>
			</defs>
			<clipPath id="SVGID_4_">
				<use xlink:href="#SVGID_3_"/>
			</clipPath>
			<g style="clip-path:url(#SVGID_4_)">
				<path opacity=".1" d="m579.1 441.7v80.2h-19.6v-62.6h-43v-31.3h-45v76.3h-21.5v-49.9h-25.4v78.3h-16.6v-20.2h-11.7v-12.1h-65.5v12.1h-11.7v32.8h-17.6v-57.2l-17.6-65v100.8h-21.5v-68.5h-27.4v-51.8h-27.4v82.2h-16.6v-62.6h-75.3v105.8h-37.4v-70.6l-13.7-40.7-13.7 40.7v44.5h-37.2v-69.9h-24.5v40h-20.5v55.9h-35.2v-37.3h-34.2v52.2h-16.6v-42.2h-9.8v27.3h-21.5v-64.7h-34.2v187.5h789.4v-210h-27.5zm-347.4-7.2h-19.9v-5.3h19.9v5.3zm0-10.3h-19.9v-5.3h19.9v5.3zm0-10.2h-19.9v-5.3h19.9v5.3zm-164.6 113.6h-4.3v-70.2h4.3v70.2zm61.1-85.5h-6.1v-11.1h6.1v11.1zm10.4 0h-6.1v-11.1h6.1v11.1zm-233.5 80.5h-2.2v-25.6h2.2v25.6zm4.4-8.1h-2.2v-17.5h2.2v17.5zm530-48.9h-4.3v-6.1h4.3v6.1zm-7.5 0h-4.3v-6.1h4.3v6.1zm7.5 10.1h-4.3v-6.1h4.3v6.1zm-7.5 0h-4.3v-6.1h4.3v6.1zm14.9-10.1h-4.3v-6.1h4.3v6.1z"/>
				<path d="m591.5 551.8v-22.9h-22.1v-28.8h-22.9v24.9h-12.6v-52.8h-22.1v28h-19.7v-50.9h-15v26.8h-15v43.4h-23.7v-19.3h-23.7v54.8h-33.1v-83.6h-37.9v63.9h-34.7v-22.1h-15v-28.4h-22.1v48.1h-21.9v-27.6h-30.4v44.2h-11.4v-16.6h-12.6v-87.5h-23.6v71.8h-25.2v-29h-50.6v62.1h-48.1v-41.8h-60.7v29.2l-24.8 3.9v-35.6h-19.3v38.5l-27.2 4.3v-16h-4.3l-9.9 18.3-4.7 0.7v-16.2h-4.3l-10 18.4-4.6 0.7v-16.3h-4.3l-10.1 18.6-4.5 0.7v-16.5h-4.3l-10.2 18.8-4.4 0.7v-16.7h-4.3l-10.3 18.9-8.6 1.4v87.2h789.4v-99.9h-15.2zm-765.2 23.6l-0.6-3.5 90.3-14.2 0.6 3.5-90.3 14.2zm174.8-33.9h-7.6v-11h7.6v11zm0-15.7h-7.6v-11h7.6v11zm13.7 15.7h-7.7v-11h7.6v11zm0-15.7h-7.7v-11h7.6v11zm13.6 0h-7.6v-11h7.6v11zm13.7 15.7h-7.6v-11h7.6v11zm0-15.7h-7.6v-11h7.6v11zm100.7-18.4h-42.6v-3.4h42.6v3.4zm0-9h-42.6v-3.4h42.6v3.4zm214 9h-7.4v-12.4h7.4v12.4zm0-18.2h-7.4v-12.3h7.4v12.3zm130.7-12.3h-5.7v-7.3h5.7v7.3zm0-13.7h-5.7v-7.3h5.7v7.3zm78.2 74.6h-3.4v-30.2h3.4v30.2z" fill="#FFEBE0"/>
			</g>
		<polygon points="293.5 649.7 205.3 540.8 129.5 634.5 88.4 583.7 59.5 598.9 57 622.5 35 649.7 26.4 649.7 11.3 632.7 -1.9 649.7 -5.9 649.7 -5.9 803.5 606.5 803.5 606.5 649.7" fill="#002F7D"/>
		<polygon opacity=".1" points="205.3 540.8 216.2 615.4 193.2 632.7 193.2 664.9 305.8 664.9"/>
		<polygon opacity=".1" points="100.4 598.5 95.8 615.4 100.4 632.7 68.2 662 112 662 129.5 634.5"/>
		<path d="m450.9 282.4l-199.6-78.9-1.1 0.1-154.9 79-0.8 1.2v136.8h2.8v-91.2h129.7v345.4l-23.3 46.7h93.3l-23-46v-346h211.1l1.1-2.3-35.3-44.8zm-200.2-75l19.4 30.9h-39.1l19.7-30.9zm18.6 119.3h-37.5l18.7-18.7 18.8 18.7zm-37.5-41.4h37.5l-18.8 18.7-18.7-18.7zm37.5 44.2l-18.7 18.7-18.7-18.7h37.4zm0 41.4h-37.5l18.7-18.7 18.8 18.7zm0 2.8l-18.7 18.7-18.7-18.7h37.4zm0 41.4h-37.5l18.7-18.7 18.8 18.7zm0 2.8l-18.7 18.7-18.7-18.7h37.4zm0 41.4h-37.5l18.7-18.7 18.8 18.7zm0 2.8l-18.7 18.7-18.7-18.7h37.4zm0 41.4h-37.5l18.7-18.7 18.8 18.7zm0 2.8l-18.8 18.7-18.7-18.7h37.5zm0 41.4h-37.5l18.7-18.7 18.8 18.7zm0 2.8l-18.7 18.7-18.7-18.7h37.4zm0 41.4h-37.5l18.7-18.7 18.8 18.7zm0 2.8l-18.7 18.7-18.7-18.7h37.4zm0 41.4h-37.5l18.7-18.7 18.8 18.7zm-16.8-20.7l18.7-18.7v37.5l-18.7-18.8zm0-44.2l18.7-18.7v37.5l-18.7-18.8zm0-44.2l18.7-18.7v37.5l-18.7-18.8zm0-44.2l18.7-18.7v37.5l-18.7-18.8zm0-44.2l18.7-18.7v37.5l-18.7-18.8zm0-44.2l18.7-18.7v37.5l-18.7-18.8zm0-44.2l18.7-18.7v37.5l-18.7-18.8zm0-44.2l18.7-18.7v37.5l-18.7-18.8zm-20.7-23.5l18.7-18.7 18.7 18.7h-37.4zm0-41.5h37.5l-18.7 18.7-18.8-18.7zm16.8 20.8l-18.7 18.7v-37.5l18.7 18.8zm0 44.2l-18.7 18.7v-37.5l18.7 18.8zm0 44.2l-18.7 18.7v-37.5l18.7 18.8zm0 44.2l-18.7 18.7v-37.5l18.7 18.8zm0 44.2l-18.7 18.7v-37.5l18.7 18.8zm0 44.2l-18.7 18.7v-37.5l18.7 18.8zm0 44.2l-18.7 18.7v-37.5l18.7 18.8zm0 44.2l-18.8 18.8v-37.5l18.8 18.7zm0 44.2l-18.7 18.7v-37.5l18.7 18.8zm20.7 23.5l-18.7 18.7-18.7-18.7h37.4zm-5.5 36h-26.6l13.3-13.3 13.3 13.3zm4 0l-15.3-15.3 18.7-18.7v34h-3.4zm3.4-394.4l-18.7-18.7 18.7-18.7v37.4zm-174 6.7l18.7 18.7-18.7 18.7v-37.4zm2-1.9h37.5l-18.8 18.7-18.7-18.7zm0 41.4l18.7-18.7 18.7 18.7h-37.4zm39.4-2l-18.7-18.7 18.7-18.7v37.4zm21.6-18.7l-18.7 18.7v-37.5l18.7 18.8zm-16.8-20.7h37.5l-18.8 18.7-18.7-18.7zm0 41.4l18.7-18.7 18.7 18.7h-37.4zm39.4-2l-18.7-18.7 18.7-18.7v37.4zm-42.8-42.2h-38.4l145.2-74.1-19.5 30.5 0.2 0.3-0.4 0.4v42.8h-87.1zm85.1 2.8l-18.8 18.7-18.7-18.7h37.5zm-39.5 1.9l18.7 18.7-18.7 18.7v-37.4zm2 39.5l18.7-18.7 18.7 18.7h-37.4zm20.7-20.7l18.7-18.7v37.5l-18.7-18.8zm21.5 334.9l18.7 18.7-15.3 15.3h-3.5v-34zm63-334.9l-18.8 18.7v-37.5l18.8 18.8zm-16.8-20.7h37.5l-18.8 18.7-18.7-18.7zm0 41.4l18.7-18.7 18.7 18.7h-37.4zm39.5-2l-18.8-18.7 18.7-18.7v37.4zm21.5-18.7l-18.7 18.7v-37.5l18.7 18.8zm-16.8-20.7h37.5l-18.7 18.7-18.8-18.7zm0 41.4l18.7-18.7 18.7 18.7h-37.4zm39.5-2l-18.8-18.7 18.7-18.7v37.4zm21.5-18.7l-18.7 18.7v-37.5l18.7 18.8zm-16.8-20.7h37.5l-18.7 18.7-18.8-18.7zm0 41.4l18.7-18.7 18.7 18.7h-37.4zm39.5-2l-18.8-18.7 18.7-18.7v37.4zm-42.8-42.2h-87.1v-42.8l-0.4-0.4 0.2-0.3-19.6-31.2 188.9 74.8h-82zm85 2.8l-18.5 18.5-18.9-18.5h37.4zm-39.4 1.9l19 18.6-19 19v-37.6zm1.9 39.5l19-19 19.4 19h-38.4zm39.5-2.8l-18.5-18.1 18.5-18.5v36.6zm3.1-36.6l14.3 18.1-13.9 16.9-0.4-35zm0.5 39.4l15.6-19 15 19h-30.6z" fill="#f00"/>
			<path d="m452.3 458.3h-18c-1.7 0-3 1.5-2.8 3.2l2.2 16.2c0.2 1.4 1.4 2.5 2.8 2.5h13.6c1.4 0 2.6-1.1 2.8-2.5l2.2-16.2c0.2-1.7-1.1-3.2-2.8-3.2zm-9 14.7c-2.1 0-3.8-1.7-3.8-3.8s1.7-3.8 3.8-3.8c2.1 0 3.8 1.7 3.8 3.8s-1.7 3.8-3.8 3.8z" fill="#f00"/>
				<rect transform="matrix(.9806 -.1961 .1961 .9806 -70.782 91.155)" height="112.7" width="2.8" y="346.6" x="423.5" fill="#002F7D"/>
				<rect transform="matrix(.196 -.9806 .9806 .196 -23.989 776.75)" height="2.8" width="112.7" y="401.6" x="405.3" fill="#002F7D"/>
		<path d="m103.2 420.6c0 4.1-3.3 7.4-7.4 7.4s-7.4-3.3-7.4-7.4" fill="#f00"/>
		<rect height="10.5" width="68.2" y="337.8" x="409.2" fill="#f00"/>
		<path d="m443.8 505.7c-5.6 0-10.2-4.6-10.2-10.2 0-5.1 3.8-9.3 8.6-10.1v-5.3h3.1v8.3h-1.6c-3.9 0-7.1 3.2-7.1 7.1s3.2 7.1 7.1 7.1c2.5 0 4.9-1.4 6.2-3.6l2.7 1.5c-1.7 3.2-5.1 5.2-8.8 5.2z" fill="#002057"/>
		<rect height="94.1" width="163.3" y="579.5" x="443.3" fill="#BAE8FD"/>
		<rect height="94.1" width="91.1" y="482.8" x="515.5" fill="#BAE8FD"/>
		<g fill="#FFEBE0">
			<rect height="72.9" width="2.1" y="590.3" x="460"/>
			<rect height="72.9" width="2.1" y="590.3" x="472.6"/>
			<rect height="72.9" width="2.1" y="590.3" x="485.1"/>
			<rect height="72.9" width="2.1" y="590.3" x="497.7"/>
			<rect height="72.9" width="2.1" y="590.3" x="510.3"/>
			<rect height="72.9" width="2.1" y="590.3" x="522.9"/>
			<rect height="72.9" width="2.1" y="590.3" x="535.5"/>
			<rect height="72.9" width="2.1" y="590.3" x="548"/>
			<rect height="72.9" width="2.1" y="590.3" x="560.6"/>
			<rect height="72.9" width="2.1" y="590.3" x="573.2"/>
			<rect height="72.9" width="2.1" y="590.3" x="585.8"/>
			<rect height="72.9" width="2.1" y="590.3" x="598.4"/>
		</g>
		<g fill="#FFEBE0">
			<rect height="72.9" width="2.1" y="493.3" x="526.2"/>
			<rect height="72.9" width="2.1" y="493.3" x="538.8"/>
			<rect height="72.9" width="2.1" y="493.3" x="551.4"/>
			<rect height="72.9" width="2.1" y="493.3" x="564"/>
			<rect height="72.9" width="2.1" y="493.3" x="576.5"/>
			<rect height="72.9" width="2.1" y="493.3" x="589.1"/>
			<rect height="72.9" width="2.1" y="493.3" x="601.7"/>
		</g>
		<path d="m73.6 631.2l-16.9-5.3-12.7-39.6c-14.1 4.5-21.9 19.6-17.4 33.7s19.6 21.9 33.7 17.4l13.2-4.2c1-0.4 1-1.7 0.1-2z" fill="#002057"/>
		<path d="m48.8 583.3l-54.6-54.6v20l44.6 44.6c2.8 2.8 7.3 2.8 10 0 2.7-2.7 2.7-7.2 0-10zm-4.7 8.1c-1.4 0-2.5-1.1-2.5-2.5s1.1-2.5 2.5-2.5 2.5 1.1 2.5 2.5-1.1 2.5-2.5 2.5z" fill="#f00"/>
		<circle cx="104.9" r="45.4" cy="94.7" fill="#fff"/>
		<polygon opacity=".1" points="443.3 673.5 606.5 673.5 606.5 733.1"/>
		<polygon opacity=".1" points="203.7 721.6 343.7 803.5 453.9 803.5 297 721.6"/>
		<path opacity=".1" d="m262.8 674.9c-5.1 14.7-26.3 24.9-32.2 46.7h66.4l-23.3-46.7h-10.9z"/>
		<path opacity=".1" d="m48.8 593.4c2.8-2.8 2.8-7.3 0-10-20.5-4.3-34.3-22.1-54.6-34.6l44.6 44.6c2.7 2.7 7.2 2.7 10 0zm-4.7-7c1.4 0 2.5 1.1 2.5 2.5s-1.1 2.5-2.5 2.5c-1.4 0-2.5-1.1-2.5-2.5s1.1-2.5 2.5-2.5z"/>
			<defs>
				<rect id="SVGID_5_" y="418.2" x="137.7" height="385.3" width="402.6"/>
			</defs>
			<clipPath id="SVGID_6_">
				<use xlink:href="#SVGID_5_"/>
			</clipPath>
			<g style="clip-path:url(#SVGID_6_)">
				<path d="m374.3 724.1s-9.1 63.1-14.9 81.2l17.9 19.5 33.1-21.1-3.9-102.2-28.2 4.5-4 18.1z" fill="#19B4FA"/>
				<path opacity=".1" d="m374.3 724.1s-9.1 63.1-14.9 81.2l17.9 19.5 33.1-21.1-3.9-102.2-28.2 4.5-4 18.1z"/>
				<path d="m478 690.1l2.1-97.1s-151.6 6.7-166 6.7-22.3 3.5-22.2 11.2 7.6 120.5 7.6 120.5 12.5 10.2 17.4-2.4 161.1-38.9 161.1-38.9z" fill="#fff"/>
				<path d="m308.7 613.7c-0.1-3.4-5.5-5.7-10.5-2.7l1.9 23.8 9.4 1.4-0.8-22.5z" fill="#FFEBE0"/>
				<path opacity=".1" d="m308.7 613.7c-0.1-3.4-5.5-5.7-10.5-2.7l1.9 23.8 9.4 1.4-0.8-22.5z"/>
				<path d="m299.5 731.4s12.5 10.2 17.4-2.4c0.1-0.1 0.1-0.3 0.2-0.4l-7.4-110.3c-0.2-4.8-0.4-5.8-2.5-7.5 2.3 3.7 0.2 9-4.8 9.5-7.2 0.7-9.3-5.8-10.4-7.8 0.7 16 7.5 118.9 7.5 118.9z" fill="#FFEBE0"/>
				<path d="m298.3 670.6c-3.6-3.2-4.3-8.8-3.3-12.4-5.9 5.9-19.3 17.7-12 27.5 7.2 9.8 10.8 13.7 10.8 13.7l12.1-15.5c0.1-3.9 2.4-5.8 6.5-8.9 4.3-3.2 6.9-5.9 6.9-5.9-2.2-2.2-4.7-0.8-7.9 1s-8.5 6.9-13.1 0.5z" fill="#EDD0C5"/>
				<path d="m438 649.4s-3.9 12.4 0.2 19.1l-30 3.2v-9c0-2.5-1.8-10.5-9.8-13.3-6.1-2.1-11.2-8.5-11.3-26.4s35.1-9.1 35.1-9.1l15.8 35.5z" fill="#EDD0C5"/>
				<path opacity=".1" d="m438 649.4l-2.1-4.8-5.6 6c-1.2 3.6-4 9.6-1.3 13.6 0.5 2.7 1.3 4.2 2.4 5l6.8-0.7c-4.1-6.8-0.2-19.1-0.2-19.1z"/>
				<path d="m444.7 623.8c-0.2 3.6-2.4 16.4-3.2 21.1-0.7 4.8-5.8 6.1-14.7 5.5-8.9-0.5-16.6 2-20-7.9s-1.9-17.1-7.5-18 7.4-13.8 7.4-13.8l31.7-7.6 6.3 20.7z" fill="#002F7D"/>
				<path d="m427.2 650.5c8.7 0.5 13.6-0.8 14.4-5.6 0.7-4.8 3-17.5 3.2-21.1l-1.4-4.5-17 9.6c-0.1-0.1 2.6 11.5 0.8 21.6z" fill="#002057"/>
				<path d="m436.3 660.1c-9.1 3.8-15.4 3.3-28.2 2.6 0 0 1.4 10.4-4.4 11s-41 17.7-52.3 22.5-13.5 5.6-15.7 6.1-7.1 1.9-14.8-6.3c-7.7-8.2-13.5-14.8-13.5-14.8-9.4 4.8-12.5 9.3-14 20.7 0 0 18.8 21.2 24.9 27.1 6 6 14.8 11.2 29.1 4.4 0 0 23.5-7.9 26.9-9.3 3.5-1.4 10.3 1.8 10.9 12.5s-7.8 88.3-7.8 88.3 59.4 22.5 85.7-7.8c0.9-12.9 16.9-72.5 16.9-101.6s-0.1-45.7-41.8-47-2.4-2.9-1.9-8.4z" fill="#19B4FA"/>
				<path d="m463.1 817.1c0.7-10.3 11-50.4 15.2-80.9 0 0 0 1.3 1.5-14.6 1.6-16.6-10.1-37.7-11.2-46.1-3.6-2.4-8.4-4.2-14.7-5.4 7.5 29.4-30.9 31.8-59.8 7.3l-0.2-0.2c-3.8 1.6-8.2 3.5-12.9 5.6 9 9 23.4 28 14.6 50.8-12.3 31.9-24.3 10.5-24.3 10.5-3.2 20.1-8.2 49.7-11.8 61.3l17.9 19.5s59.4 22.5 85.7-7.8z" fill="#f00"/>
				<path d="m469.9 781.7c0.7-3.4 1.5-7 2.2-10.6-22.4 6.9-57.8 5.1-104.4-5.5-0.5 3.2-1.1 6.4-1.7 9.5 12.1 2.7 23.4 4.9 34 6.5 29 4.3 52.3 4.3 69.9 0.1z" fill="#fff"/>
				<path d="m466.4 798.2c0.7-3.5 1.5-7.2 2.4-11.1-23.7 4.8-60.2 3.3-103.7-6.5-0.7 3.5-1.3 6.8-2 10 12.3 2.8 23.9 5.1 34.7 6.7 28.3 4.2 51.2 4.6 68.6 0.9z" fill="#fff"/>
				<path d="m386.1 622.3c-12.8-1.9-27.1-17.1-0.9-14.8l18 10-17.1 4.8z" fill="#19B4FA"/>
				<path d="m386.1 622.3c36 27.2 60.9 10.8 68.2-1.7" fill="#19B4FA"/>
				<path opacity=".1" d="m386.1 622.3c36 27.2 60.9 10.8 68.2-1.7"/>
				<path opacity=".1" d="m385.2 736.6c-0.6-10.7-7.4-13.9-10.9-12.5 0 0-9.1 63.1-14.9 81.2l17.9 19.5c0.1 0.1 8.5-77.5 7.9-88.2z"/>
				<path d="m415.6 574c29.8-3.1 43.1 17.3 38.7 46.6-10.2 6.1-44.5 6.9-68.2 1.7-3.2-15.2-0.3-45.2 29.5-48.3z" fill="#19B4FA"/>
				<path opacity=".1" d="m420.7 573.7c6.3 8 15.9 26.6 11.1 51.7 10-0.7 18.4-2.3 22.6-4.8 4-27.6-7.5-47.3-33.7-46.9z"/>
				<path opacity=".1" d="m479.8 721.6c1.6-16.6-10.1-37.7-11.2-46.1-3.6-2.4-8.4-4.2-14.7-5.4 2.8 10.9-0.8 18.1-7.8 21.6 11.9 44.3-31.1 67-34.4 105.2-2.6 29.9 34.4 24.9 50.4 21.4 0.3-0.4 0.7-0.7 1-1.1 0.7-10.3 11-50.4 15.2-80.9 0-0.1 0 1.2 1.5-14.7z"/>
			</g>
		<rect height="22.1" width="92.7" y="350.2" x="51.6" fill="#002057"/>
		<rect height="22.1" width="92.7" y="374.4" x="51.6" fill="#002057"/>
		<rect height="22.1" width="92.7" y="398.5" x="51.6" fill="#002057"/>
	</g>
</svg>
