<svg id="Capa_1" enable-background="new 0 0 512 512" height="512" viewBox="0 0 512 512" width="512" xmlns="http://www.w3.org/2000/svg"><g><ellipse cx="169.521" cy="37.095" rx="7.397" ry="7.397" transform="matrix(.987 -.16 .16 .987 -3.753 27.633)"/><path d="m382.721 186.448-34.422-52.472c-3.889-5.928-5.946-12.808-5.951-19.896 0-.01.002-.02.002-.03v-33.914c10.68-.549 19.207-9.385 19.207-20.199v-39.685c0-11.167-9.085-20.252-20.252-20.252h-204.151c-11.167 0-20.252 9.085-20.252 20.252v39.686c0 10.356 7.818 18.908 17.859 20.097v49.175c0 13.426-2.818 26.416-8.377 38.614l-3.08 6.77c-6.452 14.181-9.723 29.262-9.723 44.826v15.412c0 4.142 3.358 7.5 7.5 7.5s7.5-3.358 7.5-7.5v-15.412c0-13.406 2.818-26.397 8.376-38.614l3.078-6.766c6.454-14.161 9.726-29.244 9.726-44.831v-49.02h177.587v33.865c0 10.029 2.908 19.763 8.41 28.149l34.663 52.839c7.454 8.612 13.074 21.928 13.039 34.393l-8.9 61.678c-1.157 8.021-5.199 15.324-11.377 20.56-2.964 1.978-4.819 6.939-1.884 11.138 2.836 2.351 5.9 4.813 11.577.309 8.979-7.61 14.85-18.216 16.53-29.865l8.979-62.228c.551-15.096-5.405-32.401-15.664-44.579zm-250.819-126.51v-39.686c0-2.896 2.356-5.252 5.252-5.252h204.152c2.896 0 5.252 2.356 5.252 5.252v39.686c0 2.896-2.356 5.252-5.252 5.252h-204.152c-2.896-.001-5.252-2.357-5.252-5.252z"/><path d="m334.848 271.968c-4.142 0-7.5 3.358-7.5 7.5v198.312c0 10.598-8.623 19.221-19.221 19.221-10.599 0-19.221-8.623-19.221-19.221v-128.742-22.285c0-4.142-3.358-7.5-7.5-7.5s-7.5 3.358-7.5 7.5v22.285c0 10.598-8.623 19.221-19.221 19.221s-19.221-8.623-19.221-19.221v-10.009c0-10.475-6.232-19.884-15.877-23.97-3.814-1.616-8.216.166-9.832 3.98s.166 8.216 3.98 9.832c4.088 1.732 6.729 5.719 6.729 10.159 1.044 10.497-7.844 21.331-19.222 21.23-10.598 0-19.221-8.623-19.221-19.221-.109-5.117.24-15.136-.177-19.973-.952-8.569-6.016-16.199-13.713-20.359-3.644-1.97-8.194-.613-10.164 3.032-1.969 3.644-.612 8.194 3.032 10.164 3.187 1.722 5.326 4.819 5.873 8.329-.486 4.296-2.405 8.329-5.47 11.4-3.637 3.63-8.468 5.629-13.603 5.629-10.598 0-19.22-8.622-19.22-19.22v-50.034c0-4.142-3.358-7.5-7.5-7.5s-7.5 3.358-7.5 7.5v50.034c0 18.869 15.351 34.22 34.22 34.22 7.238 0 14.132-2.24 19.909-6.385 3.177 15.604 17.005 27.384 33.533 27.384 9.149 0 17.464-3.616 23.61-9.485 5.871 10.424 17.04 17.485 29.832 17.485 7.121 0 13.738-2.188 19.221-5.924v100.445c0 18.869 15.352 34.221 34.221 34.221s34.221-15.352 34.221-34.221v-198.313c.002-4.142-3.356-7.5-7.498-7.5z"/></g></svg>