<svg id="Capa_1" enable-background="new 0 0 512 512" height="512" viewBox="0 0 512 512" width="512" xmlns="http://www.w3.org/2000/svg"><g><path d="m477.976 200.031h-217.55c-.694-5.472.025-11.084 2.133-16.232l13.979-34.071c3.79-9.239 5.712-18.982 5.712-28.956 2.383-18.655-12.385-37.893-32.56-37.66-11.911 0-22.856 6.493-28.561 16.941l-14.789 27.039c-2.99 5.463-6.774 10.419-11.245 14.729l-47.058 45.338c-8.621 8.301-19.953 12.873-31.908 12.873h-8.214c-4.143 0-7.5 3.358-7.5 7.5s3.357 7.5 7.5 7.5h8.214c15.854 0 30.881-6.061 42.314-17.069l47.061-45.342c5.566-5.366 10.274-11.532 13.995-18.33l14.793-27.045c3.076-5.634 8.976-9.134 15.397-9.134 11.105-.363 19.298 11.098 17.56 22.66 0 8.012-1.544 15.839-4.589 23.263l-13.98 34.075c-4.107 10.031-4.627 21.258-1.463 31.613.789 2.361 3.236 5.401 7.203 5.308h223.556c10.49 0 19.024 8.534 19.024 19.024s-8.534 19.024-19.023 19.024h-171.757c-4.143 0-7.5 3.358-7.5 7.5s3.357 7.5 7.5 7.5h47.066c10.49 0 19.024 8.534 19.024 19.024s-8.534 19.024-19.024 19.024h-47.066c-6.335-.149-14.84 2.64-20.307 8.574-2.928 2.931-2.924 7.68.007 10.606 2.932 2.926 7.681 2.923 10.606-.008 1.815-1.952 4.686-3.878 9.106-4.172h47.653c10.49 0 19.024 8.534 19.024 19.024s-8.534 19.024-19.024 19.024h-47.653c-7.188 0-13.946 2.799-19.029 7.882-2.93 2.929-2.93 7.678-.001 10.606 1.465 1.465 3.384 2.197 5.304 2.197 1.919 0 3.839-.732 5.303-2.196 2.251-2.25 5.242-3.489 8.424-3.489h30.557c10.49 0 19.024 8.534 19.024 19.024s-8.534 19.024-19.024 19.024l-77.494-.002c-4.143 0-7.5 3.358-7.5 7.5s3.357 7.5 7.5 7.5l77.494.002c18.761 0 34.024-15.263 34.024-34.024 0-7.706-2.579-14.82-6.915-20.53 13.889-4.286 24.011-17.241 24.011-32.518 0-10.715-4.984-20.283-12.75-26.524 7.766-6.241 12.75-15.809 12.75-26.524 0-7.042-2.151-13.59-5.829-19.024h96.495c18.761 0 34.023-15.263 34.023-34.024s-15.263-34.024-34.023-34.024z"/><path d="m223.049 412.222h-20.519c-14.589.793-31.4-7.692-44.144-15.078-11.386-6.111-24.241-9.342-37.177-9.342h-41.5v-186.586c0-11.167-9.085-20.252-20.252-20.252h-39.205c-11.167 0-20.252 9.085-20.252 20.252v207.422c0 11.167 9.085 20.252 20.252 20.252h39.205c11.167 0 20.252-9.085 20.252-20.252v-5.835h41.501c10.469 0 20.871 2.614 30.089 7.562 15.081 8.77 32.798 17.335 51.231 16.858h20.519c4.143 0 7.5-3.358 7.5-7.5s-3.358-7.501-7.5-7.501zm-158.34-3.584c0 2.896-2.356 5.252-5.252 5.252h-39.205c-2.896 0-5.252-2.356-5.252-5.252v-207.422c0-2.896 2.356-5.252 5.252-5.252h39.205c2.896 0 5.252 2.356 5.252 5.252z"/><circle cx="39.854" cy="377.428" r="8.973"/></g></svg>