<?xml version="1.0" encoding="UTF-8" standalone="no"?>
<!-- Generator: Adobe Illustrator 22.1.0, SVG Export Plug-In . SVG Version: 6.00 Build 0)  -->
<svg id="Calque_1" style="enable-background:new 0 0 522.5 459.9" xmlns="http://www.w3.org/2000/svg" xml:space="preserve" viewBox="0 0 522.5 459.9" version="1.1" y="0px" x="0px" xmlns:xlink="http://www.w3.org/1999/xlink">
<path d="m391.2 115.8c-50.8-86.2-154.9-100-234.4-68.4-104 41.2-131.6 94.4-109.3 184.6 55.1 180.8 187.5 229 381.4 128.1 221.3-115.1-16.4-208.2-37.7-244.3z" fill="#CAF4FE"/>
<path d="m141.8 195.7c1.5-3.4 2.3-7.1 2.3-10.9 0-9.7-5.2-18.8-13.7-23.7-6.7-3.9-14.9-4.7-22.1-2.3-9-12.2-23.4-19.6-38.6-19.6-8.4 0-16.7 2.2-23.9 6.5-4.9 2.8-9.2 6.5-12.8 10.8-5.4 0.3-10.7 1.9-15.4 4.7-10.9 6.2-17.6 17.8-17.6 30.3s6.7 24.1 17.5 30.3c2.1 1.2-1.1 2.2 1.3 2.9 6.3 19.7 29.9 33.3 50.9 33.3 8.4 0 16.6-2.2 23.9-6.4 2.1-1.2 4.1-2.6 6.1-4.2 9.7 3.8 21.1 3 30.2-2.4 10.8-6.3 17.5-17.9 17.5-30.3 0-6.9-1.9-13.4-5.6-19z" fill="#fff"/>
<path d="m338.6 361.9c0.5-1.1 0.8-2.4 0.8-3.6 0-3.3-1.8-6.3-4.6-7.9-2.2-1.3-5-1.6-7.4-0.8-3-4.1-7.8-6.6-12.9-6.6-2.8 0-5.6 0.7-8 2.2-1.6 0.9-3.1 2.2-4.3 3.6-1.8 0.1-3.6 0.6-5.2 1.6-3.6 2.1-5.9 6-5.9 10.2s2.3 8.1 5.9 10.2c0.7 0.4-0.4 0.7 0.4 1 2.1 6.6 10 11.2 17.1 11.2 2.8 0 5.6-0.7 8-2.2 0.7-0.4 1.4-0.9 2-1.4 3.3 1.3 7.1 1 10.1-0.8 3.6-2.1 5.9-6 5.9-10.2-0.1-2.4-0.7-4.6-1.9-6.5z" fill="#fff"/>
	<path style="enable-background:new" d="m249.2 327.1s-11-17.8-10.7-21.1c0.3-3.4 3.5-30.2 3.5-30.2l-3.5-2.2s-11.3 25.7-10.8 38 12.6 29.5 12.6 29.5l8.9-14z" fill="#19B4FA"/>
			<path d="m224.8 454.7c-0.2-2.1-0.6-4-0.6-4l-6.5-0.7c-0.9 0.6-2.4 1.2-4.1 1.6 1.7 1.5 5 3.3 11.2 3.1z" fill="#E50000"/>
			<path d="m200.9 456.2l23.9 3.1c0.3-1.1 0.2-2.9 0-4.6-6.2 0.2-9.6-1.6-11.3-3.1-2.1 0.5-4.6 0.8-6.9 0.7-4.2-0.1-5.7 3.9-5.7 3.9z" fill="#f00"/>
		<path d="m241.7 340s-8.6 11.5-13.4 29.1c-4.9 17.6-6 21.6-7 30.6s-6.8 50.9-6.8 50.9l11.1 1.8 9.5-49.9 19.7-50-13.1-12.5z" fill="#002057"/>
			<path d="m191.1 455.3c-0.3-2.1-0.8-3.9-0.8-3.9l-6.6-0.4c-0.8 0.6-2.3 1.3-4 1.8 1.7 1.4 5.2 3 11.4 2.5z" fill="#E50000"/>
			<path d="m167.2 458l24 1.8c0.2-1.1 0.1-2.9-0.2-4.6-6.2 0.5-9.7-1.1-11.4-2.5-2.1 0.6-5.3 0.5-7.6 0.6-4.2 0.2-4.8 4.7-4.8 4.7z" fill="#f00"/>
		<path d="m230.2 354.2s-9.9 9.1-17.6 19-14.6 18.9-18.7 25.4c-4.2 6.5-12.9 52-12.9 52l12.1 2.1s2.1-11 7-23.2c5-12.1 5.9-19.7 3.8-23 0 0 24.6-12.6 32-19.5s10.3-18.1 10.4-20.4c0-2.2-16.1-12.4-16.1-12.4z" fill="#002F7D"/>
	<path d="m223.6 297.8s-0.8 1.7 0 7c0.8 5.2 2.7 8.8 6.3 8.8s5.8-0.6 5.3 4.8c-0.5 5.3 9.1-2.2 9.1-2.2s-0.1-4.1 0.9-12.7c1-8.6-12.5-15.1-12.5-15.1l-9.1 9.4z" fill="#FFEBE0"/>
	<path d="m245 307l-4.5 1.3s2.2-7.7-1.9-9.3-0.8 4.3-4.6 4.6-0.5-5.1-2-4.9-3.7 2-7.4 1.9-3.4-6-1.6-8.9c1.7-2.9 5-8 14.5-5.7s11.8 9.9 8.7 16.3l-1.2 4.7z" fill="#724A44"/>
	<path style="enable-background:new" d="m250.4 369.1l-21.6-2.2s-6-2.2-5.7-8.7c0.3-6.4 0.3-15.8 1.4-22.2 1-6.4 6.1-11.6 8.7-13.1s11.2-8.8 16.1-3.1 7.4 16.3 6.6 26.9c-0.8 10.7-0.9 22.9-5.5 22.4z" fill="#19B4FA"/>
	<polygon style="enable-background:new" points="230.4 320.3 231.5 325.9 246.1 318 246.1 313.1" fill="#BAE8FD"/>
	<path style="enable-background:new" d="m239.3 326.5c-2.9-1.5-16.4-13-17.3-16.2s-5.9-26.8-5.9-26.8l-5-3.7s-1.9 28 2.7 39.4 20.1 22.1 21.9 23.4 6.2 0.2 7.8-4.7c1.9-5.9-1.3-9.9-4.2-11.4z" fill="#19B4FA"/>
		<path d="m213.6 283s-134.1-157.2-106.4-222.4c20.9-49.2 118.1-70.1 173.4-56.5s90.1 63.5 85.4 104.4-114 152.4-125.6 166 67.8-120.2 35.2-151.7c-42.7-41.3-92.3-3.7-96.9 28s31.4 117.5 34.9 132.2z" fill="#002F7D"/>
		<path d="m253.8 0.3c-55.5-3-128.8 18.3-146.6 60.3-11.8 27.8 5.8 72.4 30 114.4-2.2-56.4 10.2-144.4 102.4-170.4 5.4-1.5 10.1-3 14.2-4.3z" fill="#002057"/>
		<ellipse rx="4.1" transform="matrix(.1707 -.9853 .9853 .1707 -69.125 464.04)" ry="3.4" cy="273.1" cx="241.1" fill="#FFEBE0"/>
	<ellipse rx="3.5" ry="4.5" cy="280.5" cx="213.9" fill="#FFEBE0"/>
<path d="m498.4 306.5v-0.2c0-9.9-8-18-18-18-6 0-11.3 3-14.6 7.5-6-6.6-14.7-10.7-24.2-10.7-14.2 0-26.4 9-30.9 21.7-8.9 1.1-15.7 8.7-15.7 17.8 0 9.9 8 18 18 18 2 0 4-0.3 5.8-1 5.9 5.7 14 9.3 22.9 9.3 11.7 0 22-6.1 27.8-15.4 3.4 8 11.2 13.6 20.4 13.6 12.2 0 22.2-9.9 22.2-22.1-0.1-9.3-5.7-17.2-13.7-20.5z" fill="#fff"/>
	<path d="m418.3 101.6c0.1-1.1 0.3-2.2 0.3-3.3 0-13.9-11.5-25.1-25.6-25.1-9.3 0-17.5 5-21.9 12.3-4.5-3.7-10.2-6.1-16.5-6.1-11.9 0-21.9 8.1-24.7 18.9-0.3 0-0.6-0.1-0.9-0.1-14.1 0-25.6 11.3-25.6 25.1s11.5 25.1 25.6 25.1c5.3 0 10.2-1.6 14.3-4.3 3.5 9.8 12.9 16.9 24.1 16.9s20.6-7.1 24.1-16.9c4.1 2.7 9 4.3 14.3 4.3 14.1 0 25.6-11.3 25.6-25.1 0-9.3-5.3-17.4-13.1-21.7z" fill="#fff"/>
<path d="m414.2 251.4c-0.1-5.4-4.6-10.3-10.8-11.6-4.2-0.8-8.2 0.1-11.1 2.3-1.5-1-3.2-1.7-5.1-2.1-0.8-0.1-1.5-0.2-2.2-0.3-2.1-2.1-5.4-3.9-9.4-4.7-6.6-1.4-12.6 0.4-14.4 3.8-6.4-0.9-11.9 1.1-12.7 4.9v0.3c-6.3-0.4-11.8 2.9-12.9 7.9-1.2 5.7 3.8 11.5 11.1 13 1.7 0.3 3.3 0.4 4.8 0.3 1.5 5.1 5.6 9.2 11 10.3 3.5 0.7 6.9 0 9.9-1.6 3.1 3.1 7.7 5.5 13.1 6.6 9.5 2 18.4-0.9 21.4-6.6 0.4 0.1 0.7 0.2 1.1 0.3 7 1.4 13.8-2.6 15.1-9.1 1.3-5.8-2.6-11.7-8.9-13.7z" fill="#fff"/>
</svg>
